<svg width="319" height="100" viewBox="0 0 319 100" fill="none" xmlns="http://www.w3.org/2000/svg">
<path d="M60.8906 52.6302C60.9026 53.8994 60.6606 55.1582 60.179 56.3325C59.6973 57.5068 58.9857 58.573 58.0861 59.4683C57.1864 60.3636 56.1168 61.07 54.9401 61.5459C53.7634 62.0219 52.5035 62.2577 51.2344 62.2396C48.6416 62.2396 46.155 61.2096 44.3217 59.3763C42.4883 57.5429 41.4583 55.0563 41.4583 52.4635C41.4583 49.8708 42.4883 47.3842 44.3217 45.5508C46.155 43.7175 48.6416 42.6875 51.2344 42.6875C56.401 42.7083 60.8906 46.7396 60.8906 52.6302ZM71 24.2083C67.0521 24.2083 63.151 26.5208 63.0104 32.4896V41.1927V64.5833C63.0104 75.7344 58.0833 79.1146 50.8906 79.1146C49.0143 79.1379 47.1627 78.6853 45.5087 77.7991C43.8547 76.9129 42.4522 75.6219 41.4323 74.0469L43.2188 73.0052C44.0635 74.262 45.2062 75.2901 46.5448 75.9981C47.8834 76.706 49.3764 77.0717 50.8906 77.0625C56.8281 77.0625 60.8854 74.2604 60.8854 64.7031V58.7604C59.8898 60.4596 58.4649 61.867 56.7536 62.8415C55.0422 63.816 53.1047 64.3233 51.1354 64.3125C48.0352 64.2475 45.0839 62.9703 42.9143 60.7548C40.7448 58.5393 39.5297 55.5618 39.5297 52.4609C39.5297 49.3601 40.7448 46.3826 42.9143 44.1671C45.0839 41.9516 48.0352 40.6744 51.1354 40.6094C53.1101 40.5991 55.0524 41.1117 56.7649 42.0951C58.4773 43.0785 59.899 44.4976 60.8854 46.2083V8.98437C39.3906 13.151 17.4479 31.7135 17.5677 60.1771C17.6563 81.7761 36.1667 96.5365 56.5 90.8386C64.7969 88.5417 71.875 84.2709 78.1719 78.9584V32.0833C78.1719 27.2448 75.0938 24.2083 71 24.2083ZM93.2969 33.1146C93.2935 30.784 93.8054 28.4815 94.7958 26.3719C95.7863 24.2622 97.2308 22.3976 99.026 20.9115C96.0323 15.9725 91.3775 12.2612 85.8958 10.4427C81.2604 8.9375 81.2708 8.70312 75.5625 7.97916C75.5208 8.17187 71.4375 7.79166 71.3958 7.97916C69.7917 8.05208 68.1823 8.09375 66.5833 8.21354C65.3958 8.29687 64.1979 8.43229 63 8.60937V27.2917C64.2969 23.5833 67.9583 22.0833 71.1354 22.0833C76.4323 22.0833 80.2812 25.8385 80.2812 31.9479V77.1042C82.776 74.8594 85.1667 72.4636 87.474 69.9583C93.6823 63.2344 98.901 55.8333 101.562 47.0417C99.0594 45.6784 96.9705 43.6651 95.5158 41.214C94.0611 38.763 93.2945 35.9648 93.2969 33.1146V33.1146Z" fill="url(#paint0_linear_134_264)"/>
<path d="M109.375 42.8542C104.021 42.8542 100.083 38.5677 100.083 32.9167C100.083 27.1875 104.021 23.3802 109.375 23.3802H119.745V25.9844H109.375C105.521 25.9844 102.682 28.8802 102.682 33.0573C102.682 37.2344 105.474 40.2604 109.375 40.2604H118.297V34.151H108.922V31.7396H120.901V42.8542H109.375Z" fill="white"/>
<path d="M143.109 42.8542L137.964 37.3385H129.422V34.9271H138.125C140.964 34.9271 142.411 33.3646 142.411 30.3437C142.411 27.3229 140.849 25.9792 138.125 25.9792H126.901V42.8542H124.297V23.3802H138.125C142.437 23.3802 144.984 26.0885 144.984 30.3437C144.984 33.5885 143.51 35.9167 140.885 36.8802L146.807 42.8542H143.109Z" fill="white"/>
<path d="M148.839 42.8542V23.3802H165.932V25.9844H151.438V40.2604H165.958V42.8646L148.839 42.8542ZM153.958 34.151V31.7396H165.208V34.151H153.958Z" fill="white"/>
<path d="M169.146 42.8542V23.3802H186.234V25.9844H171.745V40.2604H186.26V42.8646L169.146 42.8542ZM174.26 34.151V31.7396H185.51V34.151H174.26Z" fill="white"/>
<path d="M191.859 27.2917V42.8542H189.37V24.75C189.37 23.7552 189.891 23.1406 190.734 23.1406C190.971 23.1547 191.202 23.2164 191.414 23.322C191.626 23.4276 191.815 23.575 191.969 23.7552L206.703 38.8594V23.276H209.193V41.5052C209.193 42.5 208.63 43.0677 207.88 43.0677C207.363 43.0288 206.882 42.7874 206.542 42.3958L191.859 27.2917Z" fill="white"/>
<path d="M212.755 23.3802H226.927C230.573 23.3802 232.979 25.0937 232.979 28.3646C232.979 30.9375 231.615 32.25 229.818 32.651C231.901 33.1719 233.302 34.7344 233.302 37.2552C233.302 40.5 230.995 42.8542 227.219 42.8542H212.755V23.3802ZM215.359 25.9844V40.2604H226.042C228.719 40.2604 230.729 39.2187 230.729 37.1771C230.729 35.224 229.391 34.151 227.083 34.151H217.87V31.7396H226.87C229.229 31.7396 230.354 31.0156 230.354 28.875C230.354 26.5937 228.693 25.9792 225.88 25.9792L215.359 25.9844Z" fill="white"/>
<path d="M236.516 42.8542V23.3802H253.604V25.9844H239.115V40.2604H253.646V42.8646L236.516 42.8542ZM241.63 34.151V31.7396H252.88V34.151H241.63Z" fill="white"/>
<path d="M275.625 42.8542L270.479 37.3385H261.938V34.9271H270.641C273.479 34.9271 274.927 33.3646 274.927 30.3437C274.927 27.3229 273.365 25.9792 270.641 25.9792H259.417V42.8542H256.812V23.3802H270.635C274.948 23.3802 277.495 26.0885 277.495 30.3437C277.495 33.5885 276.021 35.9167 273.396 36.8802L279.323 42.8542H275.625Z" fill="white"/>
<path d="M289.635 42.8542C284.276 42.8542 280.339 38.5677 280.339 32.9167C280.339 27.1875 284.276 23.3802 289.635 23.3802H300V25.9844H289.635C285.776 25.9844 282.937 28.8802 282.937 33.0573C282.937 37.2344 285.75 40.2656 289.635 40.2656H298.552V34.151H289.177V31.7396H301.156V42.8542H289.635Z" fill="white"/>
<path d="M100.625 75.1354V55.526H103.229V75.1354H100.625ZM116.771 75.1354V66.2813H105.729V63.8698H116.74V55.5365H119.344V75.1458L116.771 75.1354Z" fill="white"/>
<path d="M143.833 75L140.708 69.7917H130.49L131.776 67.5417H139.385L134.24 58.9167L124.677 75H121.703L133.063 56.1146C133.166 55.8614 133.342 55.6448 133.569 55.4922C133.795 55.3397 134.063 55.2582 134.336 55.2582C134.609 55.2582 134.876 55.3397 135.103 55.4922C135.33 55.6448 135.506 55.8614 135.609 56.1146L146.969 75H143.833Z" fill="white"/>
<path d="M173.833 75L169.547 59.8646L163.682 74.276C163.597 74.5643 163.42 74.817 163.179 74.9963C162.937 75.1757 162.644 75.272 162.344 75.2708C162.039 75.2737 161.741 75.1786 161.495 74.9995C161.248 74.8204 161.065 74.5668 160.974 74.276L155.135 59.8646L150.849 75H148.276L153.526 56.3854C153.572 56.0675 153.736 55.7785 153.985 55.5751C154.233 55.3718 154.549 55.2688 154.87 55.2865C155.16 55.2796 155.445 55.3638 155.685 55.5273C155.925 55.6907 156.108 55.9252 156.208 56.1979L162.422 71.4114L168.609 56.1979C168.698 55.9285 168.871 55.6947 169.103 55.5307C169.334 55.3666 169.612 55.2811 169.896 55.2865C170.207 55.282 170.509 55.3911 170.746 55.5934C170.983 55.7956 171.138 56.0772 171.182 56.3854L176.432 75H173.833Z" fill="white"/>
<path d="M178.948 75V55.526H196.042V58.1302H181.547V72.3958H196.068V75H178.948ZM184.068 66.2969V63.8854H195.313V66.2969H184.068Z" fill="white"/>
<path d="M199.255 75V55.526H216.344V58.1302H201.854V72.3958H216.37V75H199.255ZM204.37 66.2969V63.8854H215.625V66.2969H204.37Z" fill="white"/>
<path d="M219.557 75V55.526H230.651C236.031 55.526 239.943 59.4115 239.943 65.0625C239.943 70.7135 236.031 75 230.651 75H219.557ZM230.651 72.3958C234.505 72.3958 237.344 69.3177 237.344 65.1927C237.344 61.0677 234.505 58.1198 230.651 58.1198H222.156V72.3958H230.651Z" fill="white"/>
<path d="M255.854 69.4271V66.9115H264.266C267.026 66.9115 268.635 65.1146 268.635 62.4896C268.635 59.8646 267.026 58.125 264.266 58.125H253.328V75H250.724V55.526H264.266C268.635 55.526 271.177 58.2031 271.177 62.4115C271.177 66.6198 268.635 69.4271 264.266 69.4271H255.854Z" fill="white"/>
<path d="M282.589 75C277.229 75 273.292 70.7135 273.292 65.0625C273.292 59.3333 277.229 55.526 282.589 55.526H292.958V58.1302H282.589C278.729 58.1302 275.891 61.0208 275.891 65.2031C275.891 69.3854 278.703 72.3958 282.589 72.3958H292.958V75H282.589Z" fill="white"/>
<defs>
<linearGradient id="paint0_linear_134_264" x1="17.5677" y1="50" x2="101.573" y2="50" gradientUnits="userSpaceOnUse">
<stop stop-color="#133960"/>
<stop offset="0.11" stop-color="#245472"/>
<stop offset="0.31" stop-color="#3D7D8D"/>
<stop offset="0.5" stop-color="#519DA2"/>
<stop offset="0.68" stop-color="#5FB4B1"/>
<stop offset="0.85" stop-color="#67C2BA"/>
<stop offset="1" stop-color="#6AC7BD"/>
</linearGradient>
</defs>
</svg>
