<svg id="Layer_1" data-name="Layer 1" xmlns="http://www.w3.org/2000/svg" xmlns:xlink="http://www.w3.org/1999/xlink" viewBox="0 0 612 192"><defs><style>.cls-1{fill:url(#linear-gradient);}.cls-2{fill:#133960;}</style><linearGradient id="linear-gradient" x1="33.73" y1="96" x2="195.02" y2="96" gradientUnits="userSpaceOnUse"><stop offset="0" stop-color="#133960"/><stop offset="0.11" stop-color="#245472"/><stop offset="0.31" stop-color="#3d7d8d"/><stop offset="0.5" stop-color="#519da2"/><stop offset="0.68" stop-color="#5fb4b1"/><stop offset="0.85" stop-color="#67c2ba"/><stop offset="1" stop-color="#6ac7bd"/></linearGradient></defs><path class="cls-1" d="M116.91,101.05A18.28,18.28,0,0,1,98.37,119.5a18.77,18.77,0,0,1,0-37.54C108.29,82,116.91,89.74,116.91,101.05Zm19.41-54.57c-7.58,0-15.07,4.44-15.34,15.9V79.09h0V124c0,21.41-9.46,27.9-23.27,27.9a21.32,21.32,0,0,1-18.16-9.73l3.43-2a17.62,17.62,0,0,0,14.73,7.79c11.4,0,19.19-5.38,19.19-23.73V112.82a21.56,21.56,0,0,1-18.72,10.66,22.76,22.76,0,0,1,0-45.51,21.48,21.48,0,0,1,18.72,10.75V17.25c-41.27,8-83.4,43.64-83.17,98.29.17,41.47,35.71,69.81,74.75,58.87C124.41,170,138,161.8,150.09,151.6v-90C150.09,52.31,144.18,46.48,136.32,46.48Zm42.81,17.1a30.36,30.36,0,0,1,11-23.43,46.66,46.66,0,0,0-25.21-20.1c-8.9-2.89-8.88-3.34-19.84-4.73-.08.37-7.92-.36-8,0-3.08.14-6.17.22-9.24.45-2.28.16-4.58.42-6.88.76V52.4c2.49-7.12,9.52-10,15.62-10,10.17,0,17.56,7.21,17.56,18.94v86.7c4.79-4.31,9.38-8.91,13.81-13.72,11.92-12.91,21.94-27.12,27.05-44A30.42,30.42,0,0,1,179.13,63.58Z"/><path class="cls-2" d="M210,82.28c-10.28,0-17.84-8.23-17.84-19.08,0-11,7.56-18.31,17.84-18.31h19.91v5H210c-7.4,0-12.85,5.56-12.85,13.58S202.51,77.3,210,77.3h17.13V65.57h-18V60.94h23V82.28Z"/><path class="cls-2" d="M274.77,82.28l-9.88-10.59h-16.4V67.06H265.2c5.45,0,8.23-3,8.23-8.8s-3-8.38-8.23-8.38H243.65v32.4h-5V44.89H265.2c8.28,0,13.17,5.2,13.17,13.37,0,6.23-2.83,10.7-7.87,12.55l11.37,11.47Z"/><path class="cls-2" d="M285.77,82.28V44.89h32.82v5H290.76V77.3h27.88v5Zm9.83-16.71V60.94h21.6v4.63Z"/><path class="cls-2" d="M324.76,82.28V44.89h32.81v5H329.75V77.3h27.87v5Zm9.82-16.71V60.94h21.6v4.63Z"/><path class="cls-2" d="M368.37,52.4V82.28h-4.78V47.52c0-1.91,1-3.09,2.62-3.09a3.38,3.38,0,0,1,2.37,1.18l28.29,29V44.69h4.78v35c0,1.91-1.08,3-2.52,3a3.78,3.78,0,0,1-2.57-1.29Z"/><path class="cls-2" d="M408.49,44.89H435.7c7,0,11.62,3.29,11.62,9.57,0,4.94-2.62,7.46-6.07,8.23,4,1,6.69,4,6.69,8.84,0,6.23-4.43,10.75-11.68,10.75H408.49Zm5,5V77.3H434c5.14,0,9-2,9-5.92,0-3.75-2.57-5.81-7-5.81H418.31V60.94h17.28c4.53,0,6.69-1.39,6.69-5.5,0-4.38-3.19-5.56-8.59-5.56Z"/><path class="cls-2" d="M454.11,82.28V44.89h32.81v5H459.1V77.3H487v5Zm9.82-16.71V60.94h21.6v4.63Z"/><path class="cls-2" d="M529.2,82.28l-9.88-10.59h-16.4V67.06h16.71c5.45,0,8.23-3,8.23-8.8s-3-8.38-8.23-8.38H498.08v32.4h-5V44.89h26.54c8.28,0,13.17,5.2,13.17,13.37,0,6.23-2.83,10.7-7.87,12.55L536.3,82.28Z"/><path class="cls-2" d="M556.1,82.28c-10.29,0-17.85-8.23-17.85-19.08,0-11,7.56-18.31,17.85-18.31H576v5H556.1c-7.41,0-12.86,5.56-12.86,13.58s5.4,13.84,12.86,13.84h17.12V65.57h-18V60.94h23V82.28Z"/><path class="cls-2" d="M193.2,144.26V106.61h5v37.65Zm31,0v-17H203v-4.63h21.14v-16h5v37.65Z"/><path class="cls-2" d="M276.16,144l-6-10H250.54l2.47-4.32h14.61l-9.88-16.56L239.38,144h-5.71l21.81-36.26a2.64,2.64,0,0,1,4.89,0L282.18,144Z"/><path class="cls-2" d="M333.76,144l-8.23-29.06-11.26,27.67a2.67,2.67,0,0,1-2.57,1.91,2.73,2.73,0,0,1-2.63-1.91l-11.21-27.67L289.63,144h-4.94l10.08-35.74a2.47,2.47,0,0,1,2.58-2.11,2.67,2.67,0,0,1,2.57,1.75l11.93,29.21,11.88-29.21a2.55,2.55,0,0,1,2.47-1.75,2.46,2.46,0,0,1,2.47,2.11L338.75,144Z"/><path class="cls-2" d="M343.58,144V106.61H376.4v5H348.57V139h27.88v5Zm9.83-16.71v-4.63H375v4.63Z"/><path class="cls-2" d="M382.57,144V106.61h32.81v5H387.56V139h27.87v5Zm9.82-16.71v-4.63H414v4.63Z"/><path class="cls-2" d="M421.55,144V106.61h21.3c10.33,0,17.84,7.46,17.84,18.31S453.18,144,442.85,144Zm21.3-5c7.4,0,12.85-5.91,12.85-13.83s-5.45-13.58-12.85-13.58H426.54V139Z"/><path class="cls-2" d="M491.24,133.3v-4.83h16.15c5.3,0,8.39-3.45,8.39-8.49s-3.09-8.38-8.39-8.38h-21V144h-5V106.61h26c8.39,0,13.27,5.14,13.27,13.22s-4.88,13.47-13.27,13.47Z"/><path class="cls-2" d="M542.57,144c-10.29,0-17.85-8.23-17.85-19.08,0-11,7.56-18.31,17.85-18.31h19.91v5H542.57c-7.41,0-12.86,5.55-12.86,13.58S535.11,139,542.57,139h19.91v5Z"/></svg>