<svg id="Layer_1" data-name="Layer 1" xmlns="http://www.w3.org/2000/svg" viewBox="0 0 275 275"><defs><style>.cls-1{fill:#fff;}</style></defs><path class="cls-1" d="M138.91,145.68c0,17.26-13.66,29.86-30,29.86S79,161.89,79,145.08a30.13,30.13,0,0,1,29.86-30.31C125,114.77,138.91,127.37,138.91,145.68ZM216.67,14.55c-14.42-4.69-14.38-5.41-32.13-7.67-.13.61-12.82-.58-12.94,0-5,.24-10,.37-15,.73Q151.1,8,145.49,8.88v58c4-11.52,15.42-16.16,25.29-16.16,16.46,0,28.43,11.67,28.43,30.68V221.78c7.76-7,15.18-14.43,22.37-22.21,23.28-25.22,42.12-53.5,47.88-88.87C276.43,67.88,254.55,26.86,216.67,14.55ZM170.33,57.33c-12.27,0-24.39,7.19-24.84,25.74v27.05h0v72.75c0,34.66-15.31,45.16-37.67,45.16a34.56,34.56,0,0,1-29.41-15.75L84,209a28.52,28.52,0,0,0,23.85,12.6c18.46,0,31.07-8.7,31.07-38.41V164.74C133.2,174.94,121.5,182,108.59,182c-20,0-36.16-16.2-36.16-36.91s16.21-36.76,36.16-36.76a34.77,34.77,0,0,1,30.32,17.4V10C72.1,22.89,3.89,80.66,4.25,169.13c.28,67.14,57.82,113,121,95.32,25.78-7.22,47.69-20.42,67.35-36.94V81.73C192.63,66.76,183.05,57.33,170.33,57.33Z"/></svg>