<svg id="Layer_1" data-name="Layer 1" xmlns="http://www.w3.org/2000/svg" viewBox="0 0 402.92 346"><defs><style>.cls-1{opacity:0.4;}.cls-2{fill:#b6e1e1;}.cls-3{fill:#b82c26;}</style></defs><g class="cls-1"><path class="cls-2" d="M208.32,169h9.29V271.42c0,48.79-21.54,63.58-53,63.58a48.63,48.63,0,0,1-41.4-22.18l7.81-4.65a40.19,40.19,0,0,0,33.59,17.75c26,0,43.73-12.26,43.73-54.08V245.9c-8,14.36-24.51,24.29-42.67,24.29-28.1,0-50.91-22.81-50.91-52s22.81-51.76,50.91-51.76A48.93,48.93,0,0,1,208.32,191Zm0,50.06c0-25.77-19.65-43.51-42.25-43.51-23,0-42,19-42,42.67s19,42.88,42,42.88S208.32,243.36,208.32,219.07Z"/><path class="cls-2" d="M293.21,128.62V270.19h-9.27V129c0-21.06-13.48-34.33-31.38-34.33-17.28,0-34.34,10.11-35,36.23V169.1l-9.27,17.24V17.21h9.27v91c5.68-16.22,21.69-22.75,35.6-22.75C276.36,85.44,293.21,101.87,293.21,128.62Z"/></g><path class="cls-3" d="M40.69,208.79V157.31H17.4v-7.92H71.9v7.92H48.61v51.48Z"/><path class="cls-3" d="M132,208.79l-9.48-15.93H91.34L95.27,186h23.2l-15.69-26.31L73.61,208.79H64.54l34.65-57.61c1-1.63,2.12-2.61,3.92-2.61s2.86,1,3.84,2.61l34.65,57.61Z"/><path class="cls-3" d="M148.78,208.79v-59.4h7.93v51.47h41.51v7.93Z"/><path class="cls-3" d="M206.47,208.79v-59.4H258.6v7.92H214.39v43.55h44.29v7.93Zm15.6-26.56v-7.35h34.32v7.35Z"/><path class="cls-3" d="M275.76,161.32v47.47h-7.6V153.55c0-3,1.63-4.9,4.16-4.9a5.33,5.33,0,0,1,3.76,1.88l44.94,46V149.06h7.6V204.7c0,3-1.71,4.82-4,4.82a6,6,0,0,1-4.09-2Z"/><path class="cls-3" d="M359.26,208.79V157.31H336v-7.92h54.5v7.92H367.19v51.48Z"/></svg>