<svg width="650" height="250" viewBox="0 0 650 250" fill="none" xmlns="http://www.w3.org/2000/svg">
<path d="M328.601 119.409H335.909V199.98C335.909 238.362 318.964 249.997 294.216 249.997C287.755 250.076 281.38 248.516 275.685 245.465C269.99 242.414 265.161 237.971 261.647 232.549L267.791 228.891C270.703 233.217 274.639 236.756 279.249 239.192C283.86 241.628 289.001 242.886 294.216 242.854C314.669 242.854 328.617 233.21 328.617 200.311V179.905C322.324 191.201 309.336 199.013 295.05 199.013C272.944 199.013 255 181.069 255 158.106C255 135.143 272.944 117.388 295.05 117.388C301.851 117.358 308.539 119.131 314.433 122.526C320.326 125.921 325.215 130.817 328.601 136.716V119.409ZM328.601 158.79C328.601 138.518 313.143 124.562 295.364 124.562C277.271 124.562 262.324 139.509 262.324 158.129C262.324 176.75 277.271 191.862 295.364 191.862C313.458 191.862 328.601 177.906 328.601 158.798V158.79Z" fill="#C7D9D9"/>
<path d="M395.382 87.6434V199.013H388.09V87.9423C388.09 71.375 377.485 60.9358 363.404 60.9358C349.81 60.9358 336.389 68.8891 335.87 89.437V119.488L328.578 133.05V0H335.87V71.5874C340.338 58.8275 352.933 53.6905 363.876 53.6905C382.127 53.6748 395.382 66.5998 395.382 87.6434Z" fill="#C7D9D9"/>
<path d="M227.712 148V114.4H212.256V107.288H250.28V114.4H234.824V148H227.712ZM288.64 148L282.536 137.752H263.272L266.632 131.984H279.12L270.048 116.752L251.568 148H243.448L266.856 109.024C267.267 108.315 267.752 107.755 268.312 107.344C268.872 106.933 269.544 106.728 270.328 106.728C271.112 106.728 271.766 106.933 272.288 107.344C272.848 107.755 273.334 108.315 273.744 109.024L297.208 148H288.64ZM300.471 148V107.288H307.583V140.888H334.967V148H300.471ZM338.945 148V107.288H375.289V114.4H346.001V140.888H375.345V148H338.945ZM351.209 130.304V124.312H373.777V130.304H351.209ZM386.925 118.208V148H380.149V111.04C380.149 109.733 380.466 108.707 381.101 107.96C381.773 107.176 382.669 106.784 383.789 106.784C384.311 106.784 384.815 106.896 385.301 107.12C385.786 107.344 386.29 107.717 386.813 108.24L415.541 136.744V106.952H422.317V144.248C422.317 145.592 421.981 146.637 421.309 147.384C420.674 148.131 419.834 148.504 418.789 148.504C417.631 148.504 416.549 148 415.541 146.992L386.925 118.208ZM441.135 148V114.4H425.679V107.288H463.703V114.4H448.247V148H441.135Z" fill="#B82925"/>
</svg>
