<svg width="650" height="250" viewBox="0 0 650 250" fill="none" xmlns="http://www.w3.org/2000/svg">
<path d="M328.601 119.409H335.909V199.98C335.909 238.362 318.964 249.997 294.216 249.997C287.755 250.076 281.38 248.516 275.685 245.465C269.99 242.414 265.161 237.971 261.647 232.549L267.791 228.891C270.703 233.217 274.639 236.756 279.249 239.192C283.86 241.628 289.001 242.886 294.216 242.854C314.669 242.854 328.617 233.21 328.617 200.311V179.904C322.324 191.201 309.336 199.013 295.05 199.013C272.944 199.013 255 181.069 255 158.106C255 135.143 272.944 117.387 295.05 117.387C301.851 117.358 308.539 119.131 314.433 122.526C320.326 125.921 325.215 130.817 328.601 136.716V119.409ZM328.601 158.79C328.601 138.518 313.143 124.562 295.364 124.562C277.271 124.562 262.324 139.509 262.324 158.129C262.324 176.75 277.271 191.862 295.364 191.862C313.458 191.862 328.601 177.906 328.601 158.798V158.79Z" fill="#C7D9D9"/>
<path d="M395.382 87.6434V199.013H388.09V87.9423C388.09 71.375 377.485 60.9358 363.404 60.9358C349.81 60.9358 336.389 68.8891 335.87 89.437V119.488L328.578 133.05V0H335.87V71.5874C340.338 58.8275 352.933 53.6905 363.876 53.6905C382.127 53.6748 395.382 66.5998 395.382 87.6434Z" fill="#C7D9D9"/>
<path d="M139.173 148V114.4H123.717V107.288H161.741V114.4H146.285V148H139.173ZM200.102 148L193.998 137.752H174.734L178.094 131.984H190.582L181.51 116.752L163.03 148H154.91L178.318 109.024C178.728 108.315 179.214 107.755 179.774 107.344C180.334 106.933 181.006 106.728 181.79 106.728C182.574 106.728 183.227 106.933 183.75 107.344C184.31 107.755 184.795 108.315 185.206 109.024L208.67 148H200.102ZM211.932 148V107.288H219.044V140.888H246.428V148H211.932ZM250.406 148V107.288H286.75V114.4H257.462V140.888H286.806V148H250.406ZM262.67 130.304V124.312H285.238V130.304H262.67ZM298.386 118.208V148H291.61V111.04C291.61 109.733 291.927 108.707 292.562 107.96C293.234 107.176 294.13 106.784 295.25 106.784C295.773 106.784 296.277 106.896 296.762 107.12C297.247 107.344 297.751 107.717 298.274 108.24L327.002 136.744V106.952H333.778V144.248C333.778 145.592 333.442 146.637 332.77 147.384C332.135 148.131 331.295 148.504 330.25 148.504C329.093 148.504 328.01 148 327.002 146.992L298.386 118.208ZM352.597 148V114.4H337.141V107.288H375.165V114.4H359.709V148H352.597Z" fill="#B82925"/>
<path d="M378.733 148V140.888H409.253C411.157 140.888 412.613 140.403 413.621 139.432C414.667 138.461 415.189 137.173 415.189 135.568C415.189 133.813 414.667 132.507 413.621 131.648C412.613 130.752 411.157 130.304 409.253 130.304H390.549C388.645 130.304 386.909 130.024 385.341 129.464C383.811 128.867 382.504 128.064 381.421 127.056C380.376 126.011 379.555 124.779 378.957 123.36C378.397 121.941 378.117 120.392 378.117 118.712C378.117 117.069 378.379 115.557 378.901 114.176C379.461 112.757 380.264 111.544 381.309 110.536C382.392 109.528 383.717 108.744 385.285 108.184C386.853 107.587 388.645 107.288 390.661 107.288H419.893V114.4H390.661C389.019 114.4 387.749 114.848 386.853 115.744C385.957 116.603 385.509 117.816 385.509 119.384C385.509 120.952 385.957 122.165 386.853 123.024C387.787 123.883 389.037 124.312 390.605 124.312H409.253C413.397 124.312 416.533 125.283 418.661 127.224C420.827 129.165 421.909 132.115 421.909 136.072C421.909 137.789 421.648 139.376 421.125 140.832C420.603 142.288 419.819 143.557 418.773 144.64C417.728 145.685 416.403 146.507 414.797 147.104C413.229 147.701 411.381 148 409.253 148H378.733ZM463.287 107.288H470.231V130.024C470.231 133.16 469.82 135.904 468.999 138.256C468.177 140.571 466.889 142.493 465.135 144.024C463.38 145.555 461.103 146.693 458.303 147.44C455.54 148.187 452.18 148.56 448.223 148.56C444.303 148.56 440.943 148.187 438.143 147.44C435.38 146.693 433.121 145.555 431.367 144.024C429.612 142.493 428.324 140.571 427.503 138.256C426.681 135.904 426.271 133.16 426.271 130.024V107.288H433.607V130.024C433.607 132.077 433.849 133.832 434.335 135.288C434.857 136.744 435.679 137.939 436.799 138.872C437.956 139.805 439.487 140.496 441.391 140.944C443.295 141.355 445.647 141.56 448.447 141.56C451.247 141.56 453.599 141.355 455.503 140.944C457.407 140.496 458.919 139.805 460.039 138.872C461.196 137.939 462.017 136.744 462.503 135.288C463.025 133.832 463.287 132.077 463.287 130.024V107.288ZM472.788 107.288H481.468L499.948 138.648L518.372 107.288H526.548L503.084 146.264C502.674 146.973 502.188 147.533 501.628 147.944C501.068 148.355 500.415 148.56 499.668 148.56C498.884 148.56 498.212 148.355 497.652 147.944C497.092 147.533 496.607 146.973 496.196 146.264L472.788 107.288Z" fill="#6994C9"/>
</svg>
