<svg width="650" height="250" viewBox="0 0 650 250" fill="none" xmlns="http://www.w3.org/2000/svg">
<path d="M328.601 119.409H335.909V199.98C335.909 238.362 318.964 249.997 294.216 249.997C287.755 250.076 281.38 248.516 275.685 245.465C269.99 242.414 265.161 237.971 261.647 232.549L267.791 228.891C270.703 233.217 274.639 236.756 279.249 239.192C283.86 241.628 289.001 242.886 294.216 242.854C314.669 242.854 328.617 233.21 328.617 200.311V179.904C322.324 191.201 309.336 199.013 295.05 199.013C272.944 199.013 255 181.069 255 158.106C255 135.143 272.944 117.387 295.05 117.387C301.851 117.358 308.539 119.131 314.433 122.526C320.326 125.921 325.215 130.817 328.601 136.716V119.409ZM328.601 158.79C328.601 138.518 313.143 124.562 295.364 124.562C277.271 124.562 262.324 139.509 262.324 158.129C262.324 176.75 277.271 191.862 295.364 191.862C313.458 191.862 328.601 177.906 328.601 158.798V158.79Z" fill="#C7D9D9"/>
<path d="M395.382 87.6434V199.013H388.09V87.9423C388.09 71.375 377.485 60.9358 363.404 60.9358C349.81 60.9358 336.389 68.8891 335.87 89.437V119.488L328.578 133.05V0H335.87V71.5874C340.338 58.8275 352.933 53.6905 363.876 53.6905C382.127 53.6748 395.382 66.5998 395.382 87.6434Z" fill="#C7D9D9"/>
<path d="M54.8155 148V114.4H39.3595V107.288H77.3835V114.4H61.9275V148H54.8155ZM115.744 148L109.64 137.752H90.376L93.736 131.984H106.224L97.152 116.752L78.672 148H70.552L93.96 109.024C94.3706 108.315 94.856 107.755 95.416 107.344C95.976 106.933 96.648 106.728 97.432 106.728C98.216 106.728 98.8693 106.933 99.392 107.344C99.952 107.755 100.437 108.315 100.848 109.024L124.312 148H115.744ZM127.574 148V107.288H134.686V140.888H162.07V148H127.574ZM166.048 148V107.288H202.392V114.4H173.104V140.888H202.448V148H166.048ZM178.312 130.304V124.312H200.88V130.304H178.312ZM214.028 118.208V148H207.252V111.04C207.252 109.733 207.57 108.707 208.204 107.96C208.876 107.176 209.772 106.784 210.892 106.784C211.415 106.784 211.919 106.896 212.404 107.12C212.89 107.344 213.394 107.717 213.916 108.24L242.644 136.744V106.952H249.42V144.248C249.42 145.592 249.084 146.637 248.412 147.384C247.778 148.131 246.938 148.504 245.892 148.504C244.735 148.504 243.652 148 242.644 146.992L214.028 118.208ZM268.239 148V114.4H252.783V107.288H290.807V114.4H275.351V148H268.239Z" fill="#B82925"/>
<path d="M312.968 148C310.13 148 307.498 147.477 305.072 146.432C302.682 145.349 300.592 143.893 298.8 142.064C297.045 140.197 295.664 137.995 294.656 135.456C293.685 132.917 293.2 130.173 293.2 127.224C293.2 124.237 293.685 121.512 294.656 119.048C295.664 116.584 297.045 114.493 298.8 112.776C300.592 111.021 302.682 109.677 305.072 108.744C307.498 107.773 310.13 107.288 312.968 107.288H335.032V114.4H312.968C311.138 114.4 309.44 114.736 307.872 115.408C306.341 116.043 305.016 116.939 303.896 118.096C302.776 119.253 301.898 120.635 301.264 122.24C300.629 123.845 300.312 125.619 300.312 127.56C300.312 129.464 300.629 131.237 301.264 132.88C301.898 134.523 302.776 135.941 303.896 137.136C305.016 138.293 306.341 139.208 307.872 139.88C309.44 140.552 311.138 140.888 312.968 140.888H335.032V148H312.968ZM358.277 148C355.44 148 352.808 147.477 350.381 146.432C347.992 145.349 345.901 143.893 344.109 142.064C342.355 140.197 340.973 137.995 339.965 135.456C338.995 132.917 338.509 130.173 338.509 127.224C338.509 124.237 338.995 121.512 339.965 119.048C340.973 116.584 342.355 114.493 344.109 112.776C345.901 111.021 347.992 109.677 350.381 108.744C352.808 107.773 355.44 107.288 358.277 107.288H368.189C371.139 107.288 373.827 107.773 376.253 108.744C378.717 109.715 380.827 111.077 382.581 112.832C384.336 114.587 385.699 116.696 386.669 119.16C387.64 121.587 388.125 124.275 388.125 127.224C388.125 130.173 387.621 132.917 386.613 135.456C385.643 137.995 384.261 140.197 382.469 142.064C380.715 143.893 378.624 145.349 376.197 146.432C373.771 147.477 371.101 148 368.189 148H358.277ZM368.189 140.888C370.056 140.888 371.773 140.552 373.341 139.88C374.909 139.208 376.253 138.293 377.373 137.136C378.531 135.941 379.427 134.523 380.061 132.88C380.696 131.237 381.013 129.464 381.013 127.56C381.013 125.656 380.696 123.901 380.061 122.296C379.427 120.653 378.531 119.253 377.373 118.096C376.253 116.939 374.909 116.043 373.341 115.408C371.773 114.736 370.056 114.4 368.189 114.4H358.277C356.448 114.4 354.749 114.736 353.181 115.408C351.651 116.043 350.325 116.939 349.205 118.096C348.085 119.253 347.208 120.635 346.573 122.24C345.939 123.845 345.621 125.619 345.621 127.56C345.621 129.464 345.939 131.237 346.573 132.88C347.208 134.523 348.085 135.941 349.205 137.136C350.325 138.293 351.651 139.208 353.181 139.88C354.749 140.552 356.448 140.888 358.277 140.888H368.189ZM399.369 118.208V148H392.593V111.04C392.593 109.733 392.91 108.707 393.545 107.96C394.217 107.176 395.113 106.784 396.233 106.784C396.755 106.784 397.259 106.896 397.745 107.12C398.23 107.344 398.734 107.717 399.257 108.24L427.985 136.744V106.952H434.761V144.248C434.761 145.592 434.425 146.637 433.753 147.384C433.118 148.131 432.278 148.504 431.233 148.504C430.075 148.504 428.993 148 427.985 146.992L399.369 118.208ZM447.139 118.208V148H440.363V111.04C440.363 109.733 440.681 108.707 441.315 107.96C441.987 107.176 442.883 106.784 444.003 106.784C444.526 106.784 445.03 106.896 445.515 107.12C446.001 107.344 446.505 107.717 447.027 108.24L475.755 136.744V106.952H482.531V144.248C482.531 145.592 482.195 146.637 481.523 147.384C480.889 148.131 480.049 148.504 479.003 148.504C477.846 148.504 476.763 148 475.755 146.992L447.139 118.208ZM488.302 148V107.288H524.646V114.4H495.358V140.888H524.702V148H488.302ZM500.566 130.304V124.312H523.134V130.304H500.566ZM548.266 148C545.429 148 542.797 147.477 540.37 146.432C537.981 145.349 535.89 143.893 534.098 142.064C532.343 140.197 530.962 137.995 529.954 135.456C528.983 132.917 528.498 130.173 528.498 127.224C528.498 124.237 528.983 121.512 529.954 119.048C530.962 116.584 532.343 114.493 534.098 112.776C535.89 111.021 537.981 109.677 540.37 108.744C542.797 107.773 545.429 107.288 548.266 107.288H570.33V114.4H548.266C546.437 114.4 544.738 114.736 543.17 115.408C541.639 116.043 540.314 116.939 539.194 118.096C538.074 119.253 537.197 120.635 536.562 122.24C535.927 123.845 535.61 125.619 535.61 127.56C535.61 129.464 535.927 131.237 536.562 132.88C537.197 134.523 538.074 135.941 539.194 137.136C540.314 138.293 541.639 139.208 543.17 139.88C544.738 140.552 546.437 140.888 548.266 140.888H570.33V148H548.266ZM588.032 148V114.4H572.576V107.288H610.6V114.4H595.144V148H588.032Z" fill="#6994C9"/>
</svg>
