<svg width="650" height="250" viewBox="0 0 650 250" fill="none" xmlns="http://www.w3.org/2000/svg">
<path d="M328.601 119.409H335.909V199.981C335.909 238.362 318.964 249.997 294.216 249.997C287.755 250.076 281.38 248.517 275.685 245.465C269.99 242.414 265.161 237.971 261.647 232.549L267.791 228.891C270.703 233.217 274.639 236.756 279.249 239.192C283.86 241.628 289.001 242.886 294.216 242.854C314.669 242.854 328.617 233.21 328.617 200.311V179.905C322.324 191.201 309.336 199.013 295.05 199.013C272.944 199.013 255 181.069 255 158.106C255 135.143 272.944 117.388 295.05 117.388C301.851 117.358 308.539 119.131 314.433 122.526C320.326 125.921 325.215 130.817 328.601 136.716V119.409ZM328.601 158.79C328.601 138.518 313.143 124.562 295.364 124.562C277.271 124.562 262.324 139.509 262.324 158.129C262.324 176.75 277.271 191.862 295.364 191.862C313.458 191.862 328.601 177.906 328.601 158.798V158.79Z" fill="#C7D9D9"/>
<path d="M395.382 87.6434V199.013H388.09V87.9423C388.09 71.375 377.485 60.9358 363.404 60.9358C349.81 60.9358 336.389 68.8891 335.87 89.437V119.488L328.578 133.05V0H335.87V71.5874C340.338 58.8275 352.933 53.6905 363.876 53.6905C382.127 53.6748 395.382 66.5998 395.382 87.6434Z" fill="#C7D9D9"/>
<path d="M36.4276 148V114.4H20.9716V107.288H58.9956V114.4H43.5396V148H36.4276ZM97.3561 148L91.2521 137.752H71.9881L75.3481 131.984H87.8361L78.7641 116.752L60.2841 148H52.1641L75.5721 109.024C75.9827 108.315 76.4681 107.755 77.0281 107.344C77.5881 106.933 78.2601 106.728 79.0441 106.728C79.8281 106.728 80.4814 106.933 81.0041 107.344C81.5641 107.755 82.0494 108.315 82.4601 109.024L105.924 148H97.3561ZM109.187 148V107.288H116.299V140.888H143.683V148H109.187ZM147.66 148V107.288H184.004V114.4H154.716V140.888H184.06V148H147.66ZM159.924 130.304V124.312H182.492V130.304H159.924ZM195.64 118.208V148H188.864V111.04C188.864 109.733 189.182 108.707 189.816 107.96C190.488 107.176 191.384 106.784 192.504 106.784C193.027 106.784 193.531 106.896 194.016 107.12C194.502 107.344 195.006 107.717 195.528 108.24L224.256 136.744V106.952H231.032V144.248C231.032 145.592 230.696 146.637 230.024 147.384C229.39 148.131 228.55 148.504 227.504 148.504C226.347 148.504 225.264 148 224.256 146.992L195.64 118.208ZM249.851 148V114.4H234.395V107.288H272.419V114.4H256.963V148H249.851Z" fill="#B82925"/>
<path d="M289.036 148V114.4H273.58V107.288H311.604V114.4H296.148V148H289.036ZM352.972 148L342.668 136.688H327.436V130.416H344.404C346.98 130.416 348.922 129.725 350.228 128.344C351.535 126.925 352.188 124.891 352.188 122.24C352.188 119.589 351.498 117.629 350.116 116.36C348.772 115.053 346.868 114.4 344.404 114.4H322.228V148H315.172V107.288H344.404C346.719 107.288 348.791 107.643 350.62 108.352C352.45 109.024 353.999 110.013 355.268 111.32C356.538 112.589 357.508 114.139 358.18 115.968C358.852 117.797 359.188 119.851 359.188 122.128C359.188 125.525 358.442 128.381 356.948 130.696C355.492 132.973 353.439 134.616 350.788 135.624L363.052 148H352.972ZM408.071 148L401.967 137.752H382.703L386.063 131.984H398.551L389.479 116.752L370.999 148H362.879L386.287 109.024C386.697 108.315 387.183 107.755 387.743 107.344C388.303 106.933 388.975 106.728 389.759 106.728C390.543 106.728 391.196 106.933 391.719 107.344C392.279 107.755 392.764 108.315 393.175 109.024L416.639 148H408.071ZM404.032 107.288H412.712L431.192 138.648L449.616 107.288H457.792L434.328 146.264C433.918 146.973 433.432 147.533 432.872 147.944C432.312 148.355 431.659 148.56 430.912 148.56C430.128 148.56 429.456 148.355 428.896 147.944C428.336 147.533 427.851 146.973 427.44 146.264L404.032 107.288ZM461.055 148V107.288H497.399V114.4H468.111V140.888H497.455V148H461.055ZM473.319 130.304V124.312H495.887V130.304H473.319ZM502.427 148V107.288H509.539V140.888H536.923V148H502.427ZM540.901 148V107.288H577.245V114.4H547.957V140.888H577.301V148H540.901ZM553.165 130.304V124.312H575.733V130.304H553.165ZM620.073 148L609.769 136.688H594.537V130.416H611.505C614.081 130.416 616.022 129.725 617.329 128.344C618.635 126.925 619.289 124.891 619.289 122.24C619.289 119.589 618.598 117.629 617.217 116.36C615.873 115.053 613.969 114.4 611.505 114.4H589.329V148H582.273V107.288H611.505C613.819 107.288 615.891 107.643 617.721 108.352C619.55 109.024 621.099 110.013 622.369 111.32C623.638 112.589 624.609 114.139 625.281 115.968C625.953 117.797 626.289 119.851 626.289 122.128C626.289 125.525 625.542 128.381 624.049 130.696C622.593 132.973 620.539 134.616 617.889 135.624L630.153 148H620.073Z" fill="#6994C9"/>
</svg>
