<svg width="650" height="250" viewBox="0 0 650 250" fill="none" xmlns="http://www.w3.org/2000/svg">
<path d="M328.601 119.409H335.909V199.98C335.909 238.362 318.964 249.997 294.216 249.997C287.755 250.076 281.38 248.516 275.685 245.465C269.99 242.414 265.161 237.971 261.647 232.549L267.791 228.891C270.703 233.217 274.639 236.756 279.249 239.192C283.86 241.628 289.001 242.886 294.216 242.854C314.669 242.854 328.617 233.21 328.617 200.311V179.904C322.324 191.201 309.336 199.013 295.05 199.013C272.944 199.013 255 181.069 255 158.106C255 135.143 272.944 117.387 295.05 117.387C301.851 117.358 308.539 119.131 314.433 122.526C320.326 125.921 325.215 130.817 328.601 136.716V119.409ZM328.601 158.79C328.601 138.518 313.143 124.562 295.364 124.562C277.271 124.562 262.324 139.509 262.324 158.129C262.324 176.75 277.271 191.862 295.364 191.862C313.458 191.862 328.601 177.906 328.601 158.798V158.79Z" fill="#C7D9D9"/>
<path d="M395.382 87.6434V199.013H388.09V87.9423C388.09 71.375 377.485 60.9358 363.404 60.9358C349.81 60.9358 336.389 68.8891 335.87 89.437V119.488L328.578 133.05V0H335.87V71.5874C340.338 58.8275 352.933 53.6905 363.876 53.6905C382.127 53.6748 395.382 66.5998 395.382 87.6434Z" fill="#C7D9D9"/>
<path d="M149.755 148V114.4H134.299V107.288H172.323V114.4H156.867V148H149.755ZM210.684 148L204.58 137.752H185.316L188.676 131.984H201.164L192.092 116.752L173.612 148H165.492L188.9 109.024C189.31 108.315 189.796 107.755 190.356 107.344C190.916 106.933 191.588 106.728 192.372 106.728C193.156 106.728 193.809 106.933 194.332 107.344C194.892 107.755 195.377 108.315 195.788 109.024L219.252 148H210.684ZM222.514 148V107.288H229.626V140.888H257.01V148H222.514ZM260.988 148V107.288H297.332V114.4H268.044V140.888H297.388V148H260.988ZM273.252 130.304V124.312H295.82V130.304H273.252ZM308.968 118.208V148H302.192V111.04C302.192 109.733 302.509 108.707 303.144 107.96C303.816 107.176 304.712 106.784 305.832 106.784C306.355 106.784 306.859 106.896 307.344 107.12C307.829 107.344 308.333 107.717 308.856 108.24L337.584 136.744V106.952H344.36V144.248C344.36 145.592 344.024 146.637 343.352 147.384C342.717 148.131 341.877 148.504 340.832 148.504C339.675 148.504 338.592 148 337.584 146.992L308.968 118.208ZM363.179 148V114.4H347.723V107.288H385.747V114.4H370.291V148H363.179Z" fill="#B82925"/>
<path d="M389.315 148V107.288H423.867V114.4H396.371V148H389.315ZM401.579 131.144V124.928H422.187V131.144H401.579ZM427.68 148V107.288H434.792V140.888H462.176V148H427.68ZM484.745 148C481.908 148 479.276 147.477 476.849 146.432C474.46 145.349 472.369 143.893 470.577 142.064C468.823 140.197 467.441 137.995 466.433 135.456C465.463 132.917 464.977 130.173 464.977 127.224C464.977 124.237 465.463 121.512 466.433 119.048C467.441 116.584 468.823 114.493 470.577 112.776C472.369 111.021 474.46 109.677 476.849 108.744C479.276 107.773 481.908 107.288 484.745 107.288H494.657C497.607 107.288 500.295 107.773 502.721 108.744C505.185 109.715 507.295 111.077 509.049 112.832C510.804 114.587 512.167 116.696 513.137 119.16C514.108 121.587 514.593 124.275 514.593 127.224C514.593 130.173 514.089 132.917 513.081 135.456C512.111 137.995 510.729 140.197 508.937 142.064C507.183 143.893 505.092 145.349 502.665 146.432C500.239 147.477 497.569 148 494.657 148H484.745ZM494.657 140.888C496.524 140.888 498.241 140.552 499.809 139.88C501.377 139.208 502.721 138.293 503.841 137.136C504.999 135.941 505.895 134.523 506.529 132.88C507.164 131.237 507.481 129.464 507.481 127.56C507.481 125.656 507.164 123.901 506.529 122.296C505.895 120.653 504.999 119.253 503.841 118.096C502.721 116.939 501.377 116.043 499.809 115.408C498.241 114.736 496.524 114.4 494.657 114.4H484.745C482.916 114.4 481.217 114.736 479.649 115.408C478.119 116.043 476.793 116.939 475.673 118.096C474.553 119.253 473.676 120.635 473.041 122.24C472.407 123.845 472.089 125.619 472.089 127.56C472.089 129.464 472.407 131.237 473.041 132.88C473.676 134.523 474.553 135.941 475.673 137.136C476.793 138.293 478.119 139.208 479.649 139.88C481.217 140.552 482.916 140.888 484.745 140.888H494.657Z" fill="#6994C9"/>
</svg>
