<svg width="650" height="250" viewBox="0 0 650 250" fill="none" xmlns="http://www.w3.org/2000/svg">
<path d="M328.601 119.409H335.909V199.98C335.909 238.362 318.964 249.997 294.216 249.997C287.755 250.076 281.38 248.516 275.685 245.465C269.99 242.414 265.161 237.971 261.647 232.549L267.791 228.891C270.703 233.217 274.639 236.756 279.249 239.192C283.86 241.628 289.001 242.886 294.216 242.854C314.669 242.854 328.617 233.21 328.617 200.311V179.904C322.324 191.201 309.336 199.013 295.05 199.013C272.944 199.013 255 181.069 255 158.106C255 135.143 272.944 117.387 295.05 117.387C301.851 117.358 308.539 119.131 314.433 122.526C320.326 125.921 325.215 130.817 328.601 136.716V119.409ZM328.601 158.79C328.601 138.518 313.143 124.562 295.364 124.562C277.271 124.562 262.324 139.509 262.324 158.129C262.324 176.75 277.271 191.862 295.364 191.862C313.458 191.862 328.601 177.906 328.601 158.798V158.79Z" fill="#C7D9D9"/>
<path d="M395.382 87.6434V199.013H388.09V87.9423C388.09 71.375 377.485 60.9358 363.404 60.9358C349.81 60.9358 336.389 68.8891 335.87 89.437V119.488L328.578 133.05V0H335.87V71.5874C340.338 58.8275 352.933 53.6905 363.876 53.6905C382.127 53.6748 395.382 66.5998 395.382 87.6434Z" fill="#C7D9D9"/>
<path d="M87.779 148V114.4H72.323V107.288H110.347V114.4H94.891V148H87.779ZM148.707 148L142.603 137.752H123.339L126.699 131.984H139.187L130.115 116.752L111.635 148H103.515L126.923 109.024C127.334 108.315 127.819 107.755 128.379 107.344C128.939 106.933 129.611 106.728 130.395 106.728C131.179 106.728 131.833 106.933 132.355 107.344C132.915 107.755 133.401 108.315 133.811 109.024L157.275 148H148.707ZM160.538 148V107.288H167.65V140.888H195.034V148H160.538ZM199.012 148V107.288H235.356V114.4H206.068V140.888H235.412V148H199.012ZM211.276 130.304V124.312H233.844V130.304H211.276ZM246.992 118.208V148H240.216V111.04C240.216 109.733 240.533 108.707 241.168 107.96C241.84 107.176 242.736 106.784 243.856 106.784C244.378 106.784 244.882 106.896 245.368 107.12C245.853 107.344 246.357 107.717 246.88 108.24L275.608 136.744V106.952H282.384V144.248C282.384 145.592 282.048 146.637 281.376 147.384C280.741 148.131 279.901 148.504 278.856 148.504C277.698 148.504 276.616 148 275.608 146.992L246.992 118.208ZM301.202 148V114.4H285.746V107.288H323.77V114.4H308.314V148H301.202Z" fill="#B82925"/>
<path d="M327.339 148V140.888H357.859C359.763 140.888 361.219 140.403 362.227 139.432C363.272 138.461 363.795 137.173 363.795 135.568C363.795 133.813 363.272 132.507 362.227 131.648C361.219 130.752 359.763 130.304 357.859 130.304H339.155C337.251 130.304 335.515 130.024 333.947 129.464C332.416 128.867 331.11 128.064 330.027 127.056C328.982 126.011 328.16 124.779 327.563 123.36C327.003 121.941 326.723 120.392 326.723 118.712C326.723 117.069 326.984 115.557 327.507 114.176C328.067 112.757 328.87 111.544 329.915 110.536C330.998 109.528 332.323 108.744 333.891 108.184C335.459 107.587 337.251 107.288 339.267 107.288H368.499V114.4H339.267C337.624 114.4 336.355 114.848 335.459 115.744C334.563 116.603 334.115 117.816 334.115 119.384C334.115 120.952 334.563 122.165 335.459 123.024C336.392 123.883 337.643 124.312 339.211 124.312H357.859C362.003 124.312 365.139 125.283 367.267 127.224C369.432 129.165 370.515 132.115 370.515 136.072C370.515 137.789 370.254 139.376 369.731 140.832C369.208 142.288 368.424 143.557 367.379 144.64C366.334 145.685 365.008 146.507 363.403 147.104C361.835 147.701 359.987 148 357.859 148H327.339ZM375.493 148V107.288H411.837V114.4H382.549V140.888H411.893V148H375.493ZM387.757 130.304V124.312H410.325V130.304H387.757ZM416.865 148V107.288H423.977V140.888H451.361V148H416.865ZM455.338 148V107.288H491.682V114.4H462.394V140.888H491.738V148H455.338ZM467.602 130.304V124.312H490.17V130.304H467.602ZM515.303 148C512.465 148 509.833 147.477 507.407 146.432C505.017 145.349 502.927 143.893 501.135 142.064C499.38 140.197 497.999 137.995 496.991 135.456C496.02 132.917 495.535 130.173 495.535 127.224C495.535 124.237 496.02 121.512 496.991 119.048C497.999 116.584 499.38 114.493 501.135 112.776C502.927 111.021 505.017 109.677 507.407 108.744C509.833 107.773 512.465 107.288 515.303 107.288H537.367V114.4H515.303C513.473 114.4 511.775 114.736 510.207 115.408C508.676 116.043 507.351 116.939 506.231 118.096C505.111 119.253 504.233 120.635 503.599 122.24C502.964 123.845 502.647 125.619 502.647 127.56C502.647 129.464 502.964 131.237 503.599 132.88C504.233 134.523 505.111 135.941 506.231 137.136C507.351 138.293 508.676 139.208 510.207 139.88C511.775 140.552 513.473 140.888 515.303 140.888H537.367V148H515.303ZM555.068 148V114.4H539.612V107.288H577.636V114.4H562.18V148H555.068Z" fill="#6994C9"/>
</svg>
