<?xml version="1.0" standalone="no"?>
<!DOCTYPE svg PUBLIC "-//W3C//DTD SVG 20010904//EN"
 "http://www.w3.org/TR/2001/REC-SVG-20010904/DTD/svg10.dtd">
<svg version="1.0" xmlns="http://www.w3.org/2000/svg"
 width="700.000000pt" height="700.000000pt" viewBox="0 0 700.000000 700.000000"
 preserveAspectRatio="xMidYMid meet">
<metadata>
Created by potrace 1.14, written by Peter Selinger 2001-2017
</metadata>
<g transform="translate(0.000000,700.000000) scale(0.100000,-0.100000)"
fill="#000000" stroke="none">
<path d="M4308 6825 c-2 -2 -69 -6 -150 -9 -161 -7 -192 -10 -345 -27 -57 -7
-104 -15 -105 -18 0 -3 -2 -334 -3 -735 l-1 -729 20 44 c12 24 24 46 29 47 4
2 7 10 7 18 0 7 35 49 78 92 130 130 287 193 497 198 209 4 380 -60 515 -196
85 -85 130 -156 166 -260 56 -159 53 -69 54 -2049 0 -1009 2 -1836 4 -1838 12
-12 489 466 661 662 33 38 76 87 96 110 54 61 226 279 300 380 64 87 209 302
209 309 0 2 17 33 38 67 196 324 340 673 427 1034 32 133 40 169 51 240 3 17
6 41 9 55 16 102 20 182 20 365 0 116 -4 239 -9 275 -4 36 -9 77 -11 92 -8 61
-39 200 -70 303 -173 588 -552 1046 -1069 1291 -125 59 -544 197 -676 223
-229 45 -300 52 -531 56 -114 1 -209 1 -211 0z"/>
<path d="M3475 6733 c-103 -23 -275 -65 -295 -72 -14 -5 -65 -22 -115 -36 -98
-30 -298 -103 -385 -142 -163 -73 -204 -92 -300 -141 -58 -29 -154 -83 -215
-118 -60 -36 -119 -71 -130 -77 -11 -7 -22 -14 -25 -18 -3 -3 -23 -16 -45 -29
-102 -61 -360 -259 -511 -391 -53 -47 -281 -274 -330 -329 -364 -410 -626
-853 -798 -1349 -26 -74 -51 -151 -56 -170 -5 -20 -18 -70 -29 -111 -26 -92
-68 -288 -76 -355 -4 -27 -8 -52 -10 -55 -2 -3 -6 -34 -10 -70 -3 -36 -8 -72
-10 -80 -19 -73 -28 -633 -12 -780 35 -330 121 -629 263 -915 62 -124 55 -112
150 -260 195 -301 453 -549 770 -739 217 -130 539 -252 744 -281 24 -4 47 -8
50 -10 3 -2 30 -7 60 -10 30 -4 69 -9 85 -11 111 -15 452 -10 577 10 18 2 53
8 78 11 25 4 65 11 90 17 25 5 59 12 75 15 51 9 254 70 387 117 453 159 869
396 1321 749 120 94 127 102 128 136 4 201 0 3749 -5 3786 -23 185 -132 361
-278 443 -138 79 -339 93 -512 36 -171 -57 -295 -182 -360 -363 -15 -41 -25
-76 -22 -78 2 -3 -1 -19 -6 -36 -8 -22 -12 -477 -13 -1412 -1 -759 -5 -1420
-9 -1470 -27 -336 -124 -579 -294 -736 -104 -95 -220 -153 -365 -183 -428 -89
-777 23 -1007 323 l-34 44 23 16 c13 9 45 28 72 43 l48 27 33 -42 c96 -123
246 -220 398 -258 83 -21 326 -18 420 5 315 76 485 305 536 721 7 64 13 685 5
685 -3 0 -19 -20 -34 -45 -16 -24 -58 -74 -94 -110 -109 -110 -231 -182 -383
-229 -251 -76 -525 -36 -758 111 -82 52 -229 205 -279 291 -102 173 -139 315
-136 527 4 272 127 525 342 703 100 83 271 165 387 186 210 38 390 16 569 -69
145 -68 254 -159 342 -282 25 -35 45 -63 46 -63 1 0 2 659 2 1465 0 1463 0
1465 -20 1464 -11 -1 -29 -3 -40 -6z"/>
<path d="M2670 4073 c-255 -40 -485 -214 -591 -449 -161 -355 -24 -785 312
-985 129 -77 257 -109 409 -104 132 5 230 32 365 102 85 44 192 148 255 248
104 162 141 399 95 600 -64 278 -288 506 -563 571 -63 16 -227 25 -282 17z"/>
</g>
</svg>
